
<svg width="25px" height="25px" viewBox="0 0 25 25" version="1.1" xmlns="http://www.w3.org/2000/svg" xmlns:xlink="http://www.w3.org/1999/xlink">
    <g id="Symbols" stroke="none" stroke-width="1" fill="none" fill-rule="evenodd">
        <g id="Main-Menu,-Night-mode,-v2" transform="translate(-285.000000, -9.000000)" fill="#FFFFFF">
            <path d="M300.258928,9 L300.566648,12.4400803 C301.869281,12.8572347 303.051052,13.5335714 304.047572,14.406412 L307.261356,12.958327 L310,17.5758727 L307.08807,19.5589454 C307.219537,20.1814154 307.288593,20.8260564 307.288593,21.4863983 C307.288593,22.1660409 307.215441,22.8290514 307.076382,23.4683756 L309.979716,25.458327 L307.241072,30.0758727 L304.003581,28.604684 C303.016985,29.4584626 301.851686,30.1208193 300.569158,30.5319119 L300.258928,34 L294.781639,34 L294.460923,30.536592 C293.170322,30.1251217 291.998028,29.4593369 291.006555,28.6000898 L287.758928,30.0758727 L285.020284,25.458327 L287.937056,23.4591468 C287.799298,22.8226717 287.726848,22.1627712 287.726848,21.4863983 C287.726848,20.8293068 287.795226,20.1877621 287.925434,19.5681391 L285,17.5758727 L287.738644,12.958327 L290.962649,14.4109878 C291.963834,13.5328005 293.152366,12.8531088 294.462821,12.4355996 L294.781639,9 L300.258928,9 Z M297.5,16.03125 C294.159568,16.03125 291.451613,18.6545815 291.451613,21.890625 C291.451613,25.1266685 294.159568,27.75 297.5,27.75 C300.840432,27.75 303.548387,25.1266685 303.548387,21.890625 C303.548387,18.6545815 300.840432,16.03125 297.5,16.03125 Z" id="Settings-Icon"></path>
        </g>
    </g>
</svg>