
<svg width="25px" height="25px" viewBox="0 0 25 25" version="1.1" xmlns="http://www.w3.org/2000/svg" xmlns:xlink="http://www.w3.org/1999/xlink">
    <g id="Symbols" stroke="none" stroke-width="1" fill="none" fill-rule="evenodd">
        <g id="Main-Menu,-Night-mode,-v2" transform="translate(-330.000000, -8.000000)" fill="#FFFFFF">
            <path d="M330,20.8171186 C330,26.4789961 333.581295,31.2832519 338.548451,32.9780385 C339.173854,33.0960598 339.401762,32.7002949 339.401762,32.3603934 C339.401762,32.0558983 339.391019,31.2502059 339.38488,30.1809325 C335.907947,30.9551525 335.174345,28.4625416 335.174345,28.4625416 C334.605728,26.9817671 333.786181,26.5875758 333.786181,26.5875758 C332.651248,25.7921119 333.872126,25.8086349 333.872126,25.8086349 C335.126769,25.8991179 335.786703,27.1296872 335.786703,27.1296872 C336.902453,29.0880548 338.712668,28.5223391 339.424783,28.1942397 C339.538353,27.3657299 339.861414,26.8015878 340.218239,26.4805697 C337.442678,26.1571912 334.524387,25.0580191 334.524387,20.1467573 C334.524387,18.7470241 335.011664,17.6030038 335.811259,16.7068284 C335.683109,16.3826631 335.254151,15.0797074 335.934037,13.3156816 C335.934037,13.3156816 336.983793,12.9702724 339.371067,14.6288658 C340.368642,14.3448278 341.437582,14.2024153 342.500384,14.1976945 C343.562418,14.2024153 344.631358,14.3448278 345.630467,14.6288658 C348.016207,12.9702724 349.064428,13.3156816 349.064428,13.3156816 C349.745849,15.0797074 349.316891,16.3826631 349.188741,16.7068284 C349.989871,17.6030038 350.473311,18.7470241 350.473311,20.1467573 C350.473311,25.0698212 347.551183,26.1532572 344.766414,26.471128 C345.215323,26.866893 345.614353,27.6489811 345.614353,28.844144 C345.614353,30.557814 345.599773,31.9402374 345.599773,32.3603934 C345.599773,32.7034421 345.824611,33.1015675 346.459222,32.9764648 C351.421775,31.278531 355,26.4782093 355,20.8171186 C355,13.738198 349.402836,8 342.498849,8 C335.597164,8 330,13.738198 330,20.8171186 Z" id="Shape"></path>
        </g>
    </g>
</svg>