
<svg width="25px" height="25px" viewBox="0 0 25 25" version="1.1" xmlns="http://www.w3.org/2000/svg" xmlns:xlink="http://www.w3.org/1999/xlink">
    <g id="Symbols" stroke="none" stroke-width="1" fill="none" fill-rule="evenodd">
        <g id="Main-Menu,-Night-mode,-v2" transform="translate(-375.000000, -7.000000)" fill="#FFFFFF">
            <path d="M376,16 L381,16 L381,32 L376,32 L376,16 Z M377.985089,12 L377.949304,12 C376.16004,12 375,10.8983972 375,9.50339582 C375,8.0798696 376.194334,7 378.019384,7 C379.842942,7 380.964215,8.07715295 381,9.49932084 C381,10.8943222 379.842942,12 377.985089,12 L377.985089,12 Z M400,32 L394.64911,32 L394.64911,23.2857543 C394.64911,21.0052278 393.8121,19.4499627 391.97153,19.4499627 C390.563701,19.4499627 389.780783,20.4989731 389.41637,21.5130695 C389.279715,21.8749066 389.301068,22.3811613 389.301068,22.889003 L389.301068,32 L384,32 C384,32 384.068327,16.5647872 384,15.1618745 L389.301068,15.1618745 L389.301068,17.8042382 C389.614235,16.6488984 391.308185,15 394.011388,15 C397.365125,15 400,17.423357 400,22.6366692 L400,32 L400,32 Z" id="Shape"></path>
        </g>
    </g>
</svg>